<?xml version="1.0" encoding="iso-8859-1"?>
<!-- Generator: Adobe Illustrator 21.0.0, SVG Export Plug-In . SVG Version: 6.00 Build 0)  -->
<svg xmlns="http://www.w3.org/2000/svg" xmlns:xlink="http://www.w3.org/1999/xlink" version="1.1" id="Capa_1" x="0px" y="0px" viewBox="0 0 512 512" style="enable-background:new 0 0 512 512;" xml:space="preserve" width="512" height="512">
<g>
	<g>
		<g>
			<path style="fill:#66330A;" d="M440.718,227.316c0.81,0.283,11.042,4.005,23.161,14.315c0.453,0.516,0.979,0.968,1.56,1.349     c11.09,9.837,23.462,25.175,31.56,48.387c1.102,3.159,4.065,5.138,7.232,5.138c0.837,0,1.688-0.138,2.523-0.429     c3.994-1.394,6.102-5.761,4.709-9.755c-8.5-24.365-21.319-41.176-33.394-52.507c1.182-3.923,3.181-6.872,6.068-8.939     c7.451-5.334,18.567-3.434,18.798-3.394c4.136,0.773,8.136-1.948,8.928-6.092c0.794-4.155-1.931-8.167-6.086-8.961     c-0.711-0.136-17.559-3.222-30.437,5.905c-4.157,2.946-7.394,6.743-9.694,11.343c-10.854-7.645-19.176-10.584-19.963-10.852     c-3.992-1.355-8.32,0.771-9.695,4.76C434.612,221.571,436.735,225.925,440.718,227.316z"/>
			<path style="fill:#66330A;" d="M390.183,355.869c2.292-6.74,4.813-12.548,7.269-17.417c9.737-19.301,20.561-28.566,20.826-28.789     c3.249-2.691,3.711-7.505,1.028-10.765c-2.688-3.266-7.515-3.736-10.781-1.048c-2.037,1.676-49.786,42.105-41.344,134.47     c0.363,3.976,3.703,6.963,7.619,6.963c0.233,0,0.469-0.01,0.706-0.032c4.213-0.385,7.315-4.112,6.93-8.325     c-2.195-24.012-0.2-44.047,3.537-60.219c16.134,6.901,22.963,26.681,23.091,27.061c1.06,3.222,4.055,5.268,7.275,5.268     c0.787,0,1.588-0.122,2.377-0.38c4.022-1.312,6.218-5.636,4.906-9.657C423.209,391.732,414.148,364.815,390.183,355.869z"/>
			<path style="fill:#66330A;" d="M463.591,420.802c-3.272-2.682-8.098-2.204-10.78,1.068c-0.853,1.041-20.91,25.988-22.34,69.615     c-0.139,4.228,3.177,7.768,7.405,7.906c0.085,0.003,0.171,0.004,0.255,0.004c4.114,0,7.515-3.266,7.651-7.409     c1.249-38.1,18.676-60.155,18.893-60.426C467.339,428.29,466.855,423.478,463.591,420.802z"/>
			<path style="fill:#66330A;" d="M461.928,360.372c-4.043,1.244-6.313,5.53-5.069,9.573c1.244,4.044,5.528,6.314,9.573,5.069     c0.055-0.017,5.717-1.611,12.163-0.28c8.629,1.78,14.811,8.063,18.373,18.675c1.075,3.202,4.059,5.225,7.26,5.224     c0.808,0,1.631-0.129,2.438-0.4c4.01-1.346,6.17-5.688,4.824-9.699C501.044,357.411,474.503,356.503,461.928,360.372z"/>
		</g>
	</g>
	<path style="fill:#28C96C;" d="M493.571,478.493c-6.742,0-68.774-97.363-78.198-164.69c-7.203-51.458-8.642-110.172-4.242-184.815   c1.334-22.64-6.485-44.182-22.018-60.658c-15.478-16.418-36.429-25.459-58.992-25.459c-22.234,0-43.741,9.27-59.007,25.434   l-98.7,104.504c-7.745,8.202-20.673,8.57-28.874,0.825c-8.201-7.745-8.571-20.673-0.825-28.874l98.7-104.504   C264.365,15.956,296.696,2.02,330.121,2.02c33.932,0,65.438,13.597,88.715,38.287c23.332,24.748,38.622,57.492,33.075,91.085   c-35.284,213.653,62.139,337.821,52.63,343.891C501.136,477.455,497.331,478.493,493.571,478.493z"/>
	<g>
		<g>
			<g>
				<path style="fill:#23B05F;" d="M451.91,131.392c5.548-33.593-9.742-66.337-33.075-91.085      C395.559,15.617,364.053,2.02,330.121,2.02c-33.425,0-65.756,13.936-88.705,38.236l-1.764,1.868      c20.98-15.702,46.756-24.446,73.222-24.446c33.932,0,65.438,13.597,88.715,38.287c23.332,24.748,38.622,57.492,33.075,91.085      c-23.699,143.504,12.471,246.636,35.896,300.73c11.388,18.611,20.636,30.714,23.012,30.714c3.76,0,7.565-1.038,10.97-3.21      C514.05,469.213,416.626,345.044,451.91,131.392z"/>
			</g>
		</g>
	</g>
	<path style="fill:#28C96C;" d="M53.621,315.532c0,0,0,95.121-52.612,139.869c-1.559,1.326-1.266,3.818,0.577,4.709   c15.41,7.45,73.836,28.577,115.47-53.938c60.354-119.618,7.489-125.808,7.489-125.808L53.621,315.532z"/>
	<path style="fill:#23B05F;" d="M42.983,384.407c8.028,24.376,19.817,47.919,35.255,70.133   c13.379-9.369,26.798-24.547,38.817-48.368c60.354-119.618,7.489-125.808,7.489-125.808L53.62,315.532   C53.62,315.532,53.617,348.293,42.983,384.407z"/>
	<path style="fill:#AD7A65;" d="M199.212,509.98c-33.681,0.001-66.988-15.082-89.116-43.84   c-51.876-67.422-68.763-148.504-47.549-228.309c14.776-55.589,43.73-93.131,49.384-100.092   c39.116-48.16,109.867-55.491,158.026-16.374c47.512,38.591,55.283,107.976,17.922,156.077c-2.071,2.992-7.152,11.821-8.968,21.514   c-1.322,7.06-1.807,15.796,9.255,30.173c37.834,49.172,28.643,119.706-20.53,157.54C247.222,502.378,223.122,509.98,199.212,509.98   z M286.442,279.255c-0.036,0.044-0.075,0.092-0.111,0.136C286.369,279.345,286.406,279.299,286.442,279.255z M286.534,279.14   c-0.026,0.032-0.057,0.071-0.083,0.103C286.48,279.208,286.507,279.174,286.534,279.14z M288.088,277.147c0,0,0,0-0.001,0.001   C288.087,277.147,288.087,277.147,288.088,277.147z"/>
	<path style="fill:#9C6E5B;" d="M278.911,298.957c1.816-9.693,6.897-18.522,8.968-21.514   c37.361-48.102,29.59-117.487-17.922-156.077c-25.951-21.078-58.491-28.665-89.077-23.648   c18.638,3.069,36.785,10.887,52.497,23.648c47.512,38.591,55.283,107.976,17.922,156.077c-2.071,2.992-7.152,11.821-8.968,21.514   c-1.322,7.06-1.807,15.796,9.255,30.173c37.834,49.172,28.643,119.706-20.53,157.54c-15.207,11.7-32.52,18.893-50.215,21.807   c6.048,0.993,12.233,1.504,18.371,1.503c23.91-0.001,48.01-7.603,68.424-23.31c49.172-37.834,58.364-108.368,20.53-157.54   C277.104,314.753,277.589,306.017,278.911,298.957z"/>
</g>















</svg>
