<?xml version="1.0"?>
<svg xmlns="http://www.w3.org/2000/svg" height="512px" viewBox="-48 0 480 480.00002" width="512px" class=""><g><path d="m336 80h16v-48h-32v16h16zm0 0" data-original="#000000" class="active-path" data-old_color="#000000" fill="#26DCAD"/><path d="m376 0h-256c-2.125-.00390625-4.167969.84375-5.664062 2.351562l-80 80c-1.5 1.496094-2.339844 3.53125-2.335938 5.648438v312h-32v40c.0273438 22.082031 17.917969 39.972656 40 40h304c22.082031-.027344 39.972656-17.917969 40-40v-432c0-4.417969-3.582031-8-8-8zm-264 27.3125v52.6875h-52.6875zm-96 412.6875v-24h288v24c.03125 8.683594 2.914062 17.117188 8.207031 24h-272.207031c-13.253906 0-24-10.746094-24-24zm352 0c0 13.253906-10.746094 24-24 24s-24-10.746094-24-24v-32c0-4.417969-3.582031-8-8-8h-264v-304h72c4.417969 0 8-3.582031 8-8v-72h240zm0 0" data-original="#000000" class="active-path" data-old_color="#000000" fill="#26DCAD"/><path d="m64 384h288v-272h-288zm16-256h256v240h-256zm0 0" data-original="#000000" class="active-path" data-old_color="#000000" fill="#26DCAD"/><path d="m96 144h16v16h-16zm0 0" data-original="#000000" class="active-path" data-old_color="#000000" fill="#26DCAD"/><path d="m336 400h16v16h-16zm0 0" data-original="#000000" class="active-path" data-old_color="#000000" fill="#26DCAD"/><path d="m312 248v-16h-16v-16h16v-16h-16c.003906-7.066406-3.105469-13.777344-8.503906-18.339844-5.394532-4.566406-12.527344-6.519531-19.496094-5.339844-11.726562 2.261719-20.148438 12.59375-20 24.535157v39.144531h-16v-72c0-13.253906-10.746094-24-24-24s-24 10.746094-24 24v48h-16v-24c0-13.253906-10.746094-24-24-24s-24 10.746094-24 24v8h-16v16h16v8c.027344 22.082031 17.917969 39.972656 40 40h24v40h-24v48h96v-48h-24v-16h24c22.082031-.027344 39.972656-17.917969 40-40zm-152 0c-13.253906 0-24-10.746094-24-24v-32c0-4.417969 3.582031-8 8-8s8 3.582031 8 8v32c0 4.417969 3.582031 8 8 8h24v16zm80 72v16h-64v-16zm-40-16v-136c0-4.417969 3.582031-8 8-8s8 3.582031 8 8v136zm80-56c0 13.253906-10.746094 24-24 24h-24v-16h24c4.417969 0 8-3.582031 8-8v-47.144531c-.152344-4.109375 2.605469-7.757813 6.601562-8.734375 2.328126-.414063 4.722657.222656 6.539063 1.746094 1.8125 1.519531 2.859375 3.765624 2.859375 6.132812zm0 0" data-original="#000000" class="active-path" data-old_color="#000000" fill="#26DCAD"/><path d="m288 336h32v16h-32zm0 0" data-original="#000000" class="active-path" data-old_color="#000000" fill="#26DCAD"/></g> </svg>
