<svg xmlns="http://www.w3.org/2000/svg" height="511pt" version="1.1" viewBox="0 0 511.99956 511" width="511pt">
<g id="surface1">
<path d="M 300.921875 285.457031 C 300.921875 293.742188 294.207031 300.457031 285.921875 300.457031 C 277.640625 300.457031 270.925781 293.742188 270.925781 285.457031 C 270.925781 277.175781 277.640625 270.460938 285.921875 270.460938 C 294.207031 270.460938 300.921875 277.175781 300.921875 285.457031 Z M 300.921875 285.457031 " style=" stroke:none;fill-rule:nonzero;fill:rgb(100%,63.921569%,0%);fill-opacity:1;" />
<path d="M 360.910156 345.449219 C 360.910156 353.730469 354.195312 360.445312 345.914062 360.445312 C 337.628906 360.445312 330.914062 353.730469 330.914062 345.449219 C 330.914062 337.164062 337.628906 330.449219 345.914062 330.449219 C 354.195312 330.449219 360.910156 337.164062 360.910156 345.449219 Z M 360.910156 345.449219 " style=" stroke:none;fill-rule:nonzero;fill:rgb(100%,63.921569%,0%);fill-opacity:1;" />
<path d="M 420.902344 285.457031 C 420.902344 293.742188 414.1875 300.457031 405.902344 300.457031 C 397.621094 300.457031 390.90625 293.742188 390.90625 285.457031 C 390.90625 277.175781 397.621094 270.460938 405.902344 270.460938 C 414.1875 270.460938 420.902344 277.175781 420.902344 285.457031 Z M 420.902344 285.457031 " style=" stroke:none;fill-rule:nonzero;fill:rgb(100%,63.921569%,0%);fill-opacity:1;" />
<path d="M 360.910156 225.464844 C 360.910156 233.75 354.195312 240.464844 345.914062 240.464844 C 337.628906 240.464844 330.914062 233.75 330.914062 225.464844 C 330.914062 217.183594 337.628906 210.46875 345.914062 210.46875 C 354.195312 210.46875 360.910156 217.183594 360.910156 225.464844 Z M 360.910156 225.464844 " style=" stroke:none;fill-rule:nonzero;fill:rgb(100%,63.921569%,0%);fill-opacity:1;" />
<path d="M 500.222656 174.171875 C 487.625 183.472656 469.230469 181.972656 459.03125 170.574219 L 393.042969 99.785156 C 387.34375 93.785156 379.242188 90.484375 370.84375 90.484375 L 239.464844 90.484375 C 231.0625 90.484375 224.464844 97.085938 224.464844 105.183594 C 224.464844 113.582031 231.0625 120.480469 239.464844 120.480469 L 360.945312 120.480469 C 377.441406 120.480469 390.941406 133.980469 390.941406 150.476562 C 390.941406 166.972656 377.441406 180.460938 360.945312 180.460938 L 296.453125 180.460938 C 293.15625 180.761719 289.855469 181.972656 287.457031 184.070312 C 277.855469 192.769531 267.058594 199.671875 255.960938 205.367188 C 215.167969 225.765625 166.875 226.363281 124.878906 205.96875 L 72.386719 180.472656 L 14.996094 180.472656 C 6.597656 180.472656 0 173.574219 0 165.175781 L 0 45.492188 C 0 37.09375 6.597656 30.496094 14.996094 30.496094 L 129.082031 30.496094 C 132.378906 28.996094 166.574219 0.5 219.066406 0.5 L 300.953125 0.5 C 366.644531 0.5 430.335938 31.695312 469.925781 84.1875 L 505.921875 132.179688 C 515.820312 145.375 513.421875 163.976562 500.222656 174.171875 Z M 500.222656 174.171875 " style=" stroke:none;fill-rule:nonzero;fill:rgb(99.215686%,81.960784%,63.921569%);fill-opacity:1;" />
<path d="M 502.625 382.941406 C 498.425781 381.144531 494.523438 379.042969 490.925781 376.640625 C 458.527344 355.046875 415.835938 355.046875 383.441406 376.640625 C 360.945312 391.34375 332.148438 391.34375 309.953125 376.640625 C 293.457031 365.84375 274.859375 360.445312 255.960938 360.445312 C 237.964844 360.445312 219.367188 365.84375 203.46875 376.640625 C 180.972656 391.34375 152.175781 391.34375 129.980469 376.640625 C 97.585938 355.046875 54.894531 355.046875 22.496094 376.640625 C 19.796875 378.441406 16.796875 379.34375 13.800781 379.644531 C 6 380.242188 0 386.84375 0 394.640625 L 0 497.425781 C 0 505.824219 6.597656 512.421875 14.996094 512.421875 L 496.925781 512.421875 C 505.324219 512.421875 511.921875 505.824219 511.921875 497.425781 L 511.921875 396.742188 C 511.921875 390.742188 508.324219 385.042969 502.625 382.941406 Z M 502.625 382.941406 " style=" stroke:none;fill-rule:nonzero;fill:rgb(49.411765%,36.470588%,25.098039%);fill-opacity:1;" />
<path d="M 511.921875 396.742188 L 511.921875 497.425781 C 511.921875 505.824219 505.324219 512.421875 496.925781 512.421875 L 255.960938 512.421875 L 255.960938 360.445312 C 274.859375 360.445312 293.457031 365.84375 309.953125 376.640625 C 332.148438 391.339844 360.945312 391.339844 383.441406 376.640625 C 415.835938 355.046875 458.527344 355.046875 490.925781 376.640625 C 494.523438 379.042969 498.425781 381.140625 502.625 382.941406 C 508.324219 385.042969 511.921875 390.742188 511.921875 396.742188 Z M 511.921875 396.742188 " style=" stroke:none;fill-rule:nonzero;fill:rgb(40.784314%,30.196078%,20.392157%);fill-opacity:1;" />
<path d="M 105.984375 450.433594 L 75.988281 450.433594 C 67.699219 450.433594 60.992188 443.722656 60.992188 435.433594 C 60.992188 427.144531 67.699219 420.4375 75.988281 420.4375 L 105.984375 420.4375 C 114.273438 420.4375 120.980469 427.144531 120.980469 435.433594 C 120.980469 443.722656 114.273438 450.433594 105.984375 450.433594 Z M 105.984375 450.433594 " style=" stroke:none;fill-rule:nonzero;fill:rgb(36.078431%,26.666667%,18.431373%);fill-opacity:1;" />
<path d="M 435.933594 450.433594 L 405.9375 450.433594 C 397.648438 450.433594 390.941406 443.722656 390.941406 435.433594 C 390.941406 427.144531 397.648438 420.4375 405.9375 420.4375 L 435.933594 420.4375 C 444.222656 420.4375 450.929688 427.144531 450.929688 435.433594 C 450.929688 443.722656 444.222656 450.433594 435.933594 450.433594 Z M 435.933594 450.433594 " style=" stroke:none;fill-rule:nonzero;fill:rgb(29.803922%,21.960784%,15.686275%);fill-opacity:1;" />
<path d="M 285.957031 435.433594 C 285.957031 443.835938 279.359375 450.433594 270.957031 450.433594 L 240.964844 450.433594 C 232.5625 450.433594 225.964844 443.835938 225.964844 435.433594 C 225.964844 427.035156 232.5625 420.4375 240.964844 420.4375 L 270.957031 420.4375 C 279.359375 420.4375 285.957031 427.035156 285.957031 435.433594 Z M 285.957031 435.433594 " style=" stroke:none;fill-rule:nonzero;fill:rgb(36.078431%,26.666667%,18.431373%);fill-opacity:1;" />
<path d="M 285.957031 435.433594 C 285.957031 443.835938 279.359375 450.433594 270.957031 450.433594 L 255.960938 450.433594 L 255.960938 420.4375 L 270.957031 420.4375 C 279.359375 420.4375 285.957031 427.035156 285.957031 435.433594 Z M 285.957031 435.433594 " style=" stroke:none;fill-rule:nonzero;fill:rgb(29.803922%,21.960784%,15.686275%);fill-opacity:1;" />
<path d="M 390.941406 150.476562 C 390.941406 166.976562 377.441406 180.464844 360.945312 180.464844 L 296.453125 180.464844 C 293.15625 180.761719 289.855469 181.972656 287.457031 184.074219 C 277.855469 192.769531 267.058594 199.671875 255.960938 205.367188 L 255.960938 120.484375 L 360.945312 120.484375 C 377.441406 120.484375 390.941406 133.980469 390.941406 150.476562 Z M 390.941406 150.476562 " style=" stroke:none;fill-rule:nonzero;fill:rgb(100%,73.333333%,52.156863%);fill-opacity:1;" />
<path d="M 500.222656 174.171875 C 487.625 183.472656 469.230469 181.972656 459.03125 170.574219 L 393.042969 99.785156 C 387.34375 93.785156 379.242188 90.484375 370.84375 90.484375 L 255.960938 90.484375 L 255.960938 0.5 L 300.953125 0.5 C 366.644531 0.5 430.335938 31.695312 469.925781 84.1875 L 505.921875 132.179688 C 515.820312 145.375 513.421875 163.976562 500.222656 174.171875 Z M 500.222656 174.171875 " style=" stroke:none;fill-rule:nonzero;fill:rgb(100%,73.333333%,52.156863%);fill-opacity:1;" />
</g>
</svg>