<?xml version="1.0" encoding="iso-8859-1"?>
<!-- Generator: Adobe Illustrator 19.0.0, SVG Export Plug-In . SVG Version: 6.00 Build 0)  -->
<svg version="1.1" id="Layer_1" xmlns="http://www.w3.org/2000/svg" xmlns:xlink="http://www.w3.org/1999/xlink" x="0px" y="0px"
	 viewBox="0 0 511.837 511.837" style="enable-background:new 0 0 511.837 511.837;" xml:space="preserve">
<path id="SVGCleanerId_0" style="fill:#EC5564;" d="M422.869,48.556c-59.217-28.694-123.025-16.573-166.942,34.771
	C212.003,31.983,148.193,19.862,88.978,48.556C13.61,89.419-22.285,182.609,14.641,280.228
	c46.814,129.68,216.575,190.349,241.286,198.252c24.704-7.903,194.449-68.572,241.262-198.252
	C534.132,182.609,498.221,89.419,422.869,48.556z"/>
<g>
	<path id="SVGCleanerId_0_1_" style="fill:#EC5564;" d="M422.869,48.556c-59.217-28.694-123.025-16.573-166.942,34.771
		C212.003,31.983,148.193,19.862,88.978,48.556C13.61,89.419-22.285,182.609,14.641,280.228
		c46.814,129.68,216.575,190.349,241.286,198.252c24.704-7.903,194.449-68.572,241.262-198.252
		C534.132,182.609,498.221,89.419,422.869,48.556z"/>
</g>
<path style="fill:#8CC153;" d="M133.949,187.279c0,0-5.639,88.669,35.926,131.218c25.477,26.086,67.276,26.586,93.379,1.156l0,0
	c26.031-25.492,26.499-67.284,1.03-93.37C222.717,183.734,133.949,187.279,133.949,187.279z"/>
<path style="fill:#79AA41;" d="M255.818,308.97c-4.046-6.061-9.95-13.871-17.573-23.274c-12.762-15.753-25.867-30.406-26.414-31.031
	l0,0c-1.812-2.029-4.405-3.373-7.341-3.545c-5.889-0.328-10.918,4.17-11.247,10.059c-0.172,2.938,0.875,5.671,2.687,7.701l0,0
	c26.617,29.78,44.861,54.055,46.501,59.49c-0.234-0.75-0.469-3.531,1.421-6.311l17.636,11.996
	C266.643,326.464,261.52,317.498,255.818,308.97z"/>
<path style="fill:#A0D468;" d="M397.127,142.793c0,0-113.903,8.919-160.522,69.557c-28.585,37.176-21.65,90.465,15.464,119.112l0,0
	c37.201,28.523,90.48,21.525,119.066-15.65C417.776,255.165,397.127,142.793,397.127,142.793z"/>
<path style="fill:#8CC153;" d="M276.102,471.232c-10.334-31.803-14.035-63.512-10.958-94.222
	c2.483-24.93,9.396-49.328,20.532-72.509c19.15-39.87,44.486-62.708,44.752-62.926l-0.016-0.016
	c2.656-2.359,4.077-5.967,3.453-9.731c-0.984-5.795-6.482-9.716-12.277-8.748c-2.047,0.344-3.859,1.25-5.296,2.546l-0.016-0.015
	c-1.14,1.015-28.351,25.367-49.399,68.799c-12.372,25.492-20.072,52.391-22.899,79.852c-3.483,34.082,0.562,69.135,12.059,104.186
	C259.785,477.262,266.783,474.856,276.102,471.232z"/>
<g>
</g>
<g>
</g>
<g>
</g>
<g>
</g>
<g>
</g>
<g>
</g>
<g>
</g>
<g>
</g>
<g>
</g>
<g>
</g>
<g>
</g>
<g>
</g>
<g>
</g>
<g>
</g>
<g>
</g>
</svg>
